<svg xmlns="http://www.w3.org/2000/svg" viewBox="0 0 800 800" fill="none" stroke="currentColor" stroke-width="1.2" stroke-linejoin="round">
  <path d="M120,420 C180,360 260,320 340,330 C440,340 510,400 600,360 C660,335 700,300 760,310" />
  <path d="M80,450 C160,400 250,360 350,375 C450,390 540,440 630,400 C700,375 740,330 800,340" />
  <path d="M40,490 C140,440 240,400 360,420 C470,440 560,490 660,450 C730,425 780,380 820,390" />
  <path d="M0,540 C120,500 240,460 380,490 C490,510 580,560 680,520 C760,495 800,450 840,460" />
  <path d="M-40,600 C100,560 240,520 410,560 C520,580 620,640 720,600 C800,575 840,530 880,540" />
  <path d="M150,260 C220,210 330,180 420,210 C520,240 580,300 680,270" />
  <path d="M180,200 C260,160 360,140 460,180 C560,220 620,260 700,220" />
  <path d="M210,140 C290,100 400,90 500,130 C600,170 660,210 720,170" />
  <path d="M260,80 C340,40 450,30 540,70 C640,110 700,160 740,120" />
  <path d="M50,720 C160,680 280,650 410,680 C520,700 620,750 720,720" />
  <path d="M100,760 C200,730 320,700 460,720 C580,735 660,770 760,740" />
  <path d="M30,30 C90,0 160,-10 220,20 C290,55 350,80 410,60" />
  <path d="M380,500 C420,470 470,460 510,480 C550,500 580,540 620,530" />
  <path d="M390,530 C440,500 500,490 550,510 C600,535 630,580 680,565" />
  <path d="M130,360 C170,320 240,300 290,320 C340,345 380,380 430,365" />
  <path d="M540,140 C580,110 640,100 690,120 C740,140 770,180 810,170" />
  <circle cx="430" cy="430" r="55" />
  <circle cx="430" cy="430" r="95" />
  <circle cx="220" cy="180" r="28" />
  <circle cx="220" cy="180" r="55" />
  <circle cx="640" cy="600" r="40" />
  <circle cx="640" cy="600" r="80" />
</svg>
